<?xml version="1.0" encoding="UTF-8"?>
<!DOCTYPE svg PUBLIC "-//W3C//DTD SVG 1.1//EN" "http://www.w3.org/Graphics/SVG/1.1/DTD/svg11.dtd">
<svg xmlns="http://www.w3.org/2000/svg" version="1.1" width="300px" height="53px" style="shape-rendering:geometricPrecision; text-rendering:geometricPrecision; image-rendering:optimizeQuality; fill-rule:evenodd; clip-rule:evenodd" xmlns:xlink="http://www.w3.org/1999/xlink">
<g><path style="opacity:0.711" fill="#000000" d="M 39.5,11.5 C 41.6237,12.0312 43.1237,13.3645 44,15.5C 47.0234,23.412 50.5234,31.0786 54.5,38.5C 49.9485,40.552 46.6152,39.3853 44.5,35C 41.8333,34.3333 39.1667,34.3333 36.5,35C 35.6198,36.3561 35.2865,37.8561 35.5,39.5C 32.8333,39.5 30.1667,39.5 27.5,39.5C 31.0427,29.9616 35.0427,20.6283 39.5,11.5 Z M 40.5,24.5 C 41.7759,25.3864 41.7759,26.3864 40.5,27.5C 39.4376,26.5754 39.4376,25.5754 40.5,24.5 Z"/></g>
<g><path style="opacity:0.685" fill="#000000" d="M 171.5,11.5 C 175.49,11.4994 179.157,12.4994 182.5,14.5C 184.557,18.3853 183.391,20.7187 179,21.5C 176.968,18.3651 174.468,17.8651 171.5,20C 175.25,22.0775 178.917,24.2442 182.5,26.5C 185.367,37.1323 181.367,41.6323 170.5,40C 167.006,38.7666 164.673,36.4333 163.5,33C 164.377,31.1327 165.877,29.966 168,29.5C 169.933,32.6486 172.766,33.982 176.5,33.5C 176.67,32.1779 176.337,31.0113 175.5,30C 170.812,29.0805 167.312,26.5805 165,22.5C 164.103,16.9533 166.27,13.2866 171.5,11.5 Z"/></g>
<g><path style="opacity:0.729" fill="#000000" d="M 224.5,11.5 C 237.522,11.3517 243.356,17.685 242,30.5C 237.12,40.5122 229.62,43.0122 219.5,38C 217.19,36.3626 215.69,34.196 215,31.5C 212.538,21.8399 215.704,15.1732 224.5,11.5 Z M 225.5,18.5 C 233.503,18.8386 236.336,22.8386 234,30.5C 230.076,34.4821 226.076,34.4821 222,30.5C 220.789,25.6638 221.955,21.6638 225.5,18.5 Z"/></g>
<g><path style="opacity:0.703" fill="#000000" d="M 2.5,12.5 C 8.5,12.5 14.5,12.5 20.5,12.5C 20.5,14.5 20.5,16.5 20.5,18.5C 16.8333,18.5 13.1667,18.5 9.5,18.5C 9.5,19.8333 9.5,21.1667 9.5,22.5C 13.1667,22.5 16.8333,22.5 20.5,22.5C 20.7394,24.4672 20.4061,26.3005 19.5,28C 16.1832,28.4983 12.8499,28.665 9.5,28.5C 9.5,30.1667 9.5,31.8333 9.5,33.5C 13.1667,33.5 16.8333,33.5 20.5,33.5C 20.5,35.5 20.5,37.5 20.5,39.5C 14.5,39.5 8.5,39.5 2.5,39.5C 2.5,30.5 2.5,21.5 2.5,12.5 Z"/></g>
<g><path style="opacity:0.745" fill="#000000" d="M 61.5,12.5 C 65.8461,12.3343 70.1794,12.501 74.5,13C 76.8477,13.3459 78.6811,14.5125 80,16.5C 81.534,21.8398 80.3674,26.3398 76.5,30C 78.6944,32.6947 80.6944,35.528 82.5,38.5C 79.8333,39.8333 77.1667,39.8333 74.5,38.5C 72.4197,36.0072 70.5864,33.3405 69,30.5C 68.502,33.4816 68.3354,36.4816 68.5,39.5C 66.1667,39.5 63.8333,39.5 61.5,39.5C 61.5,30.5 61.5,21.5 61.5,12.5 Z M 68.5,18.5 C 71.2776,18.0217 73.2776,19.0217 74.5,21.5C 73.2776,23.9783 71.2776,24.9783 68.5,24.5C 68.5,22.5 68.5,20.5 68.5,18.5 Z"/></g>
<g><path style="opacity:0.719" fill="#000000" d="M 86.5,12.5 C 93.5,12.5 100.5,12.5 107.5,12.5C 107.5,14.5 107.5,16.5 107.5,18.5C 105.167,18.5 102.833,18.5 100.5,18.5C 100.5,25.5 100.5,32.5 100.5,39.5C 98.1667,39.5 95.8333,39.5 93.5,39.5C 93.5,32.5 93.5,25.5 93.5,18.5C 91.1667,18.5 88.8333,18.5 86.5,18.5C 86.5,16.5 86.5,14.5 86.5,12.5 Z"/></g>
<g><path style="opacity:0.715" fill="#000000" d="M 114.5,12.5 C 116.833,12.5 119.167,12.5 121.5,12.5C 121.5,15.5 121.5,18.5 121.5,21.5C 124.833,21.5 128.167,21.5 131.5,21.5C 131.5,18.5 131.5,15.5 131.5,12.5C 133.833,12.5 136.167,12.5 138.5,12.5C 138.5,21.5 138.5,30.5 138.5,39.5C 136.167,39.5 133.833,39.5 131.5,39.5C 131.5,35.8333 131.5,32.1667 131.5,28.5C 128.167,28.5 124.833,28.5 121.5,28.5C 121.5,32.1667 121.5,35.8333 121.5,39.5C 119.167,39.5 116.833,39.5 114.5,39.5C 114.5,30.5 114.5,21.5 114.5,12.5 Z"/></g>
<g><path style="opacity:0.736" fill="#000000" d="M 189.5,12.5 C 196.167,12.5 202.833,12.5 209.5,12.5C 209.5,14.5 209.5,16.5 209.5,18.5C 207.5,18.5 205.5,18.5 203.5,18.5C 203.5,25.5 203.5,32.5 203.5,39.5C 201.167,39.5 198.833,39.5 196.5,39.5C 196.5,32.5 196.5,25.5 196.5,18.5C 194.167,18.5 191.833,18.5 189.5,18.5C 189.5,16.5 189.5,14.5 189.5,12.5 Z"/></g>
<g><path style="opacity:0.747" fill="#000000" d="M 250.5,12.5 C 254.846,12.3343 259.179,12.501 263.5,13C 265.848,13.3459 267.681,14.5125 269,16.5C 270.534,21.8398 269.367,26.3398 265.5,30C 267.96,32.5238 269.96,35.3571 271.5,38.5C 268.833,39.8333 266.167,39.8333 263.5,38.5C 261.914,35.6595 260.08,32.9928 258,30.5C 257.502,33.4816 257.335,36.4816 257.5,39.5C 255.167,39.5 252.833,39.5 250.5,39.5C 250.5,30.5 250.5,21.5 250.5,12.5 Z M 257.5,18.5 C 260.571,17.9245 262.571,19.0912 263.5,22C 262.056,24.0345 260.056,24.8678 257.5,24.5C 257.5,22.5 257.5,20.5 257.5,18.5 Z"/></g>
<g><path style="opacity:0.712" fill="#000000" d="M 278.5,12.5 C 284.5,12.5 290.5,12.5 296.5,12.5C 296.5,14.5 296.5,16.5 296.5,18.5C 292.833,18.5 289.167,18.5 285.5,18.5C 285.5,19.8333 285.5,21.1667 285.5,22.5C 288.833,22.5 292.167,22.5 295.5,22.5C 295.5,24.5 295.5,26.5 295.5,28.5C 292.167,28.5 288.833,28.5 285.5,28.5C 285.5,30.1667 285.5,31.8333 285.5,33.5C 289.167,33.5 292.833,33.5 296.5,33.5C 296.5,35.5 296.5,37.5 296.5,39.5C 290.5,39.5 284.5,39.5 278.5,39.5C 278.5,30.5 278.5,21.5 278.5,12.5 Z"/></g>
</svg>
